<svg xmlns="http://www.w3.org/2000/svg" width="32" height="32" viewBox="0 0 32 32">
    <path fill="#26C775" fill-rule="evenodd" d="M.296 21.225V10.91c0-.221.19-.411.412-.411h7.071c.206 0 .38.174.38.38 0 .205-.174.38-.38.38H1.12v4.54h5.948c.206 0 .38.173.38.379 0 .205-.174.38-.38.38H1.12v4.666c0 .221-.19.411-.411.411a.419.419 0 0 1-.412-.411zm9.764-10.219v-.269c0-.269.206-.474.475-.474a.48.48 0 0 1 .49.474v.27a.48.48 0 0 1-.49.474.466.466 0 0 1-.475-.475zm.095 10.235v-7.403c0-.222.158-.396.38-.396.221 0 .395.158.395.396v7.403c0 .237-.158.395-.38.395a.382.382 0 0 1-.395-.395zm2.961.031c0-.095.032-.174.095-.253l2.864-3.559-2.721-3.385a.413.413 0 0 1-.111-.269c0-.206.174-.364.38-.364a.39.39 0 0 1 .316.158l2.642 3.322 2.626-3.29c.095-.11.19-.19.332-.19.19 0 .348.174.348.364a.388.388 0 0 1-.094.253l-2.737 3.385 2.847 3.56c.064.079.111.158.111.268a.372.372 0 0 1-.38.364.39.39 0 0 1-.316-.158l-2.769-3.496-2.752 3.464c-.095.111-.19.19-.333.19-.19 0-.348-.174-.348-.364zm9.147-.11v-10.25c0-.222.19-.412.412-.412h3.274c3.48 0 5.886 2.389 5.886 5.505v.031c0 3.117-2.405 5.537-5.886 5.537h-3.274a.419.419 0 0 1-.412-.411zm.823-.348h2.863c3.085 0 5.031-2.104 5.031-4.746v-.032c0-2.625-1.946-4.777-5.03-4.777h-2.864v9.555z"/>
</svg>
