<svg xmlns="http://www.w3.org/2000/svg" width="33" height="13" viewBox="0 0 33 13">
    <path fill="#26C775" fill-rule="evenodd" d="M.8 11.648V1.216C.8.992.992.8 1.216.8h7.152a.39.39 0 0 1 .384.384.39.39 0 0 1-.384.384H1.632V6.16h6.016a.39.39 0 0 1 .384.384.39.39 0 0 1-.384.384H1.632v4.72a.424.424 0 0 1-.416.416.424.424 0 0 1-.416-.416zm9.875-10.336V1.04c0-.272.208-.48.48-.48s.496.208.496.48v.272c0 .272-.224.48-.496.48a.471.471 0 0 1-.48-.48zm.096 10.352V4.176c0-.224.16-.4.384-.4s.4.16.4.4v7.488c0 .24-.16.4-.384.4s-.4-.16-.4-.4zm2.994.032c0-.096.032-.176.096-.256l2.896-3.6-2.752-3.424a.417.417 0 0 1-.112-.272c0-.208.176-.368.384-.368.144 0 .24.064.32.16l2.672 3.36 2.656-3.328c.096-.112.192-.192.336-.192.192 0 .352.176.352.368a.392.392 0 0 1-.096.256L17.75 7.824l2.88 3.6c.064.08.112.16.112.272a.376.376 0 0 1-.384.368.394.394 0 0 1-.32-.16l-2.8-3.536-2.784 3.504c-.096.112-.192.192-.336.192-.192 0-.352-.176-.352-.368zm9.251-.112V1.216c0-.224.192-.416.416-.416h3.312c3.52 0 5.952 2.416 5.952 5.568V6.4c0 3.152-2.432 5.6-5.952 5.6h-3.312a.424.424 0 0 1-.416-.416zm.832-.352h2.896c3.12 0 5.088-2.128 5.088-4.8V6.4c0-2.656-1.968-4.832-5.088-4.832h-2.896v9.664z"/>
</svg>
