<svg xmlns="http://www.w3.org/2000/svg" width="220" height="144" viewBox="0 0 220 144">
    <g fill="none" fill-rule="evenodd">
        <path fill="#26C775" d="M1.06 76.58V4.86C1.06 3.32 2.38 2 3.92 2h49.17c1.43 0 2.64 1.21 2.64 2.64 0 1.43-1.21 2.64-2.64 2.64H6.78v31.57h41.36c1.43 0 2.64 1.21 2.64 2.64 0 1.43-1.21 2.64-2.64 2.64H6.78v32.45c0 1.54-1.32 2.86-2.86 2.86-1.54 0-2.86-1.32-2.86-2.86zM68.95 5.52V3.65c0-1.87 1.43-3.3 3.3-3.3 1.87 0 3.41 1.43 3.41 3.3v1.87c0 1.87-1.54 3.3-3.41 3.3s-3.3-1.43-3.3-3.3zm.66 71.17V25.21c0-1.54 1.1-2.75 2.64-2.75S75 23.56 75 25.21v51.48c0 1.65-1.1 2.75-2.64 2.75s-2.75-1.1-2.75-2.75zm20.59.22c0-.66.22-1.21.66-1.76l19.91-24.75-18.92-23.54c-.44-.55-.77-1.1-.77-1.87 0-1.43 1.21-2.53 2.64-2.53.99 0 1.65.44 2.2 1.1l18.37 23.1 18.26-22.88c.66-.77 1.32-1.32 2.31-1.32 1.32 0 2.42 1.21 2.42 2.53 0 .66-.22 1.21-.66 1.76l-19.03 23.54 19.8 24.75c.44.55.77 1.1.77 1.87 0 1.43-1.21 2.53-2.64 2.53-.99 0-1.65-.44-2.2-1.1l-19.25-24.31-19.14 24.09c-.66.77-1.32 1.32-2.31 1.32-1.32 0-2.42-1.21-2.42-2.53zm63.6-.77V4.86c0-1.54 1.32-2.86 2.86-2.86h22.77c24.2 0 40.92 16.61 40.92 38.28v.22c0 21.67-16.72 38.5-40.92 38.5h-22.77c-1.54 0-2.86-1.32-2.86-2.86zm5.72-2.42h19.91c21.45 0 34.98-14.63 34.98-33v-.22c0-18.26-13.53-33.22-34.98-33.22h-19.91v66.44z"/>
        <g fill="#AABAAC">
            <path d="M11.456 131.8h2.464V143h-2.464v-11.2zm5.7 0h2.272l5.248 6.896V131.8h2.432V143h-2.096l-5.424-7.12V143h-2.432v-11.2zm15.683 2.272h-3.408V131.8h9.28v2.272h-3.408V143H32.84v-8.928zm8.196-2.272h8.448v2.192h-6v2.272h5.28v2.192h-5.28v2.352h6.08V143h-8.528v-11.2zm16.115 5.44c.608 0 1.075-.144 1.4-.432.326-.288.488-.672.488-1.152v-.032c0-.533-.17-.933-.512-1.2-.341-.267-.816-.4-1.424-.4h-2.448v3.216h2.496zm-4.96-5.44h5.12c1.419 0 2.507.379 3.264 1.136.64.64.96 1.493.96 2.56v.032c0 .907-.221 1.645-.664 2.216-.442.57-1.021.99-1.736 1.256l2.736 4h-2.88l-2.4-3.584h-1.936V143H52.19v-11.2zm18.436 6.512l-1.488-3.632-1.488 3.632h2.976zm-2.592-6.592h2.272l4.8 11.28H72.53l-1.024-2.512H66.77L65.746 143h-2.512l4.8-11.28zm9.235.08h2.464v4.896l4.544-4.896h2.976l-4.56 4.752L87.461 143h-2.96l-3.472-4.768-1.296 1.344V143H77.27v-11.2zm14.724 2.272h-3.408V131.8h9.28v2.272h-3.408V143h-2.464v-8.928zm8.307-2.272h2.464V143H100.3v-11.2zm11.172 9.12c.49 0 .944-.09 1.36-.272.416-.181.77-.432 1.064-.752.293-.32.523-.69.688-1.112.165-.421.248-.872.248-1.352v-.032c0-.48-.083-.933-.248-1.36-.165-.427-.4-.8-.704-1.12a3.383 3.383 0 0 0-1.08-.76 3.284 3.284 0 0 0-1.36-.28c-.501 0-.957.09-1.368.272-.41.181-.763.432-1.056.752-.293.32-.523.69-.688 1.112a3.668 3.668 0 0 0-.248 1.352v.032c0 .48.083.933.248 1.36a3.382 3.382 0 0 0 1.776 1.88c.41.187.867.28 1.368.28zm-.032 2.272a6.106 6.106 0 0 1-2.384-.456 5.928 5.928 0 0 1-1.88-1.232 5.512 5.512 0 0 1-1.232-1.824 5.747 5.747 0 0 1-.44-2.248v-.032c0-.8.15-1.55.448-2.248a5.8 5.8 0 0 1 1.24-1.84 5.772 5.772 0 0 1 1.888-1.248 6.166 6.166 0 0 1 2.392-.456c.864 0 1.659.152 2.384.456a5.928 5.928 0 0 1 1.88 1.232 5.512 5.512 0 0 1 1.232 1.824c.293.699.44 1.448.44 2.248v.032c0 .8-.15 1.55-.448 2.248a5.8 5.8 0 0 1-1.24 1.84 5.772 5.772 0 0 1-1.888 1.248 6.166 6.166 0 0 1-2.392.456zm8.596-11.392h2.272l5.248 6.896V131.8h2.432V143h-2.096l-5.424-7.12V143h-2.432v-11.2zm17.06 11.36c-.854 0-1.692-.147-2.513-.44a6.648 6.648 0 0 1-2.24-1.352l1.456-1.744a7.31 7.31 0 0 0 1.576.992 4.215 4.215 0 0 0 1.768.368c.512 0 .91-.093 1.192-.28a.881.881 0 0 0 .424-.776v-.032c0-.16-.03-.301-.088-.424-.059-.123-.17-.237-.336-.344a3.519 3.519 0 0 0-.688-.32 11.906 11.906 0 0 0-1.144-.336 13.945 13.945 0 0 1-1.536-.464 4.328 4.328 0 0 1-1.168-.632 2.556 2.556 0 0 1-.744-.936c-.176-.373-.264-.837-.264-1.392v-.032c0-.512.096-.973.288-1.384.192-.41.461-.765.808-1.064.347-.299.76-.528 1.24-.688.48-.16 1.008-.24 1.584-.24.821 0 1.576.123 2.264.368.688.245 1.32.597 1.896 1.056l-1.28 1.856a8.114 8.114 0 0 0-1.472-.808 3.762 3.762 0 0 0-1.44-.296c-.48 0-.84.093-1.08.28-.24.187-.36.419-.36.696v.032c0 .181.035.339.104.472.07.133.195.253.376.36.181.107.43.208.744.304.315.096.712.208 1.192.336.565.15 1.07.317 1.512.504.443.187.816.41 1.12.672.304.261.533.568.688.92.155.352.232.773.232 1.264v.032c0 .555-.101 1.048-.304 1.48a3.04 3.04 0 0 1-.848 1.088 3.832 3.832 0 0 1-1.296.672 5.627 5.627 0 0 1-1.664.232zm11.059-2.384c.501 0 .96-.08 1.376-.24.416-.16.77-.39 1.064-.688a3.23 3.23 0 0 0 .688-1.056c.165-.405.248-.859.248-1.36v-.032c0-.49-.083-.944-.248-1.36a3.192 3.192 0 0 0-.688-1.072 3.047 3.047 0 0 0-1.064-.696 3.694 3.694 0 0 0-1.376-.248h-1.904v6.752h1.904zm-4.368-8.976h4.368c.874 0 1.677.141 2.408.424.73.283 1.36.675 1.888 1.176.528.501.936 1.09 1.224 1.768.288.677.432 1.41.432 2.2v.032c0 .79-.144 1.525-.432 2.208a5.217 5.217 0 0 1-1.224 1.776 5.792 5.792 0 0 1-1.888 1.184c-.731.288-1.534.432-2.408.432h-4.368v-11.2zm12.947 0h8.448v2.192h-6v2.272h5.28v2.192h-5.28v2.352h6.08V143h-8.528v-11.2zm15.14 11.36c-.854 0-1.69-.147-2.512-.44a6.648 6.648 0 0 1-2.24-1.352l1.456-1.744a7.31 7.31 0 0 0 1.576.992 4.215 4.215 0 0 0 1.768.368c.512 0 .91-.093 1.192-.28a.881.881 0 0 0 .424-.776v-.032c0-.16-.03-.301-.088-.424-.059-.123-.17-.237-.336-.344a3.519 3.519 0 0 0-.688-.32 11.905 11.905 0 0 0-1.144-.336 13.945 13.945 0 0 1-1.536-.464 4.328 4.328 0 0 1-1.168-.632 2.556 2.556 0 0 1-.744-.936c-.176-.373-.264-.837-.264-1.392v-.032c0-.512.096-.973.288-1.384.192-.41.461-.765.808-1.064.346-.299.76-.528 1.24-.688.48-.16 1.008-.24 1.584-.24.821 0 1.576.123 2.264.368.688.245 1.32.597 1.896 1.056l-1.28 1.856a8.114 8.114 0 0 0-1.472-.808 3.762 3.762 0 0 0-1.44-.296c-.48 0-.84.093-1.08.28-.24.187-.36.419-.36.696v.032c0 .181.034.339.104.472.07.133.194.253.376.36.181.107.43.208.744.304a36 36 0 0 0 1.192.336c.565.15 1.07.317 1.512.504.442.187.816.41 1.12.672.304.261.533.568.688.92.154.352.232.773.232 1.264v.032c0 .555-.102 1.048-.304 1.48a3.04 3.04 0 0 1-.848 1.088 3.832 3.832 0 0 1-1.296.672 5.627 5.627 0 0 1-1.664.232zm6.803-11.36h2.464V143h-2.464v-11.2zm11.092 11.392c-.875 0-1.672-.144-2.392-.432a5.516 5.516 0 0 1-1.856-1.2 5.423 5.423 0 0 1-1.208-1.824 6.027 6.027 0 0 1-.432-2.304v-.032a5.747 5.747 0 0 1 1.664-4.088 5.745 5.745 0 0 1 1.856-1.248 5.947 5.947 0 0 1 2.352-.456c.501 0 .957.035 1.368.104.41.07.792.168 1.144.296.352.128.683.288.992.48.31.192.608.41.896.656l-1.552 1.872a6.253 6.253 0 0 0-.64-.48 3.906 3.906 0 0 0-1.408-.576 4.495 4.495 0 0 0-.88-.08c-.448 0-.867.093-1.256.28a3.393 3.393 0 0 0-1.712 1.856 3.668 3.668 0 0 0-.248 1.352v.032c0 .512.083.984.248 1.416.165.432.4.808.704 1.128.304.32.661.568 1.072.744.41.176.867.264 1.368.264.917 0 1.69-.224 2.32-.672v-1.6h-2.48v-2.128h4.864v4.864c-.576.49-1.261.91-2.056 1.256-.795.347-1.704.52-2.728.52zm7.587-11.392h2.272l5.248 6.896V131.8h2.432V143h-2.096l-5.424-7.12V143h-2.432v-11.2zM15.424 120.16c-1.776 0-3.232-.592-4.576-1.792l.784-.928c1.168 1.056 2.288 1.584 3.84 1.584 1.504 0 2.496-.8 2.496-1.904v-.032c0-1.04-.56-1.632-2.912-2.128-2.576-.56-3.76-1.392-3.76-3.232v-.032c0-1.76 1.552-3.056 3.68-3.056 1.632 0 2.8.464 3.936 1.376l-.736.976c-1.04-.848-2.08-1.216-3.232-1.216-1.456 0-2.384.8-2.384 1.808v.032c0 1.056.576 1.648 3.04 2.176 2.496.544 3.648 1.456 3.648 3.168v.032c0 1.92-1.6 3.168-3.824 3.168zm13.733-.16v-10.032h-3.76V108.8h8.8v1.168h-3.76V120h-1.28zm16.502.176c-2.768 0-4.656-1.696-4.656-4.864V108.8h1.264v6.432c0 2.416 1.296 3.776 3.424 3.776 2.064 0 3.376-1.248 3.376-3.696V108.8h1.264v6.416c0 3.264-1.872 4.96-4.672 4.96zM57.936 120v-11.2h3.888c3.52 0 5.952 2.416 5.952 5.568v.032c0 3.152-2.432 5.6-5.952 5.6h-3.888zm3.888-10.032H59.2v8.864h2.624c2.832 0 4.64-1.92 4.64-4.4v-.032c0-2.48-1.808-4.432-4.64-4.432zM75.061 120v-11.2h8.096v1.152h-6.832v3.824h6.112v1.152h-6.112v3.92h6.912V120h-8.176zm15.334 0v-11.2h4.816c1.376 0 2.48.416 3.184 1.12.544.544.864 1.328.864 2.208v.032c0 1.856-1.28 2.944-3.04 3.264l3.44 4.576h-1.552l-3.248-4.352h-3.2V120h-1.264zm1.264-5.488h3.44c1.68 0 2.88-.864 2.88-2.304v-.032c0-1.376-1.056-2.208-2.864-2.208h-3.456v4.544zM106.576 120v-11.2h8.096v1.152h-6.832v3.824h6.112v1.152h-6.112v3.92h6.912V120h-8.176zm15.333 0v-11.2h1.184l7.056 8.976V108.8h1.232V120h-1.008l-7.232-9.184V120h-1.232zm17.254 0v-11.2h3.888c3.52 0 5.952 2.416 5.952 5.568v.032c0 3.152-2.432 5.6-5.952 5.6h-3.888zm3.888-10.032h-2.624v8.864h2.624c2.832 0 4.64-1.92 4.64-4.4v-.032c0-2.48-1.808-4.432-4.64-4.432zM156.288 120v-11.2h8.096v1.152h-6.832v3.824h6.112v1.152h-6.112v3.92h6.912V120h-8.176zm24.747 0v-11.2h4.192c2.528 0 4.192 1.344 4.192 3.552v.032c0 2.416-2.016 3.664-4.4 3.664h-2.72V120h-1.264zm1.264-5.104h2.768c1.856 0 3.072-.992 3.072-2.464v-.032c0-1.6-1.2-2.432-3.008-2.432h-2.832v4.928zM194.256 120l4.8-10.624c-.528-.272-.88-.768-.88-1.376 0-.912.816-1.584 1.776-1.584.96 0 1.776.672 1.776 1.584 0 .608-.368 1.104-.88 1.376l4.8 10.624h-1.36l-1.312-2.96h-6.096l-1.328 2.96h-1.296zm3.12-4.112h5.104l-2.544-5.696-2.56 5.696zm2.576-6.912c.608 0 1.072-.416 1.072-.976s-.464-.976-1.072-.976c-.608 0-1.072.416-1.072.976s.464.976 1.072.976z"/>
        </g>
    </g>
</svg>
