<svg xmlns="http://www.w3.org/2000/svg" xmlns:xlink="http://www.w3.org/1999/xlink" width="55" height="9" viewBox="0 0 55 9">
    <defs>
        <path id="a" d="M5.333 4a1.333 1.333 0 1 1-2.666 0 1.333 1.333 0 0 1 2.666 0zm.333-4H2.333A2.336 2.336 0 0 0 0 2.334v3.333A2.336 2.336 0 0 0 2.334 8h3.333A2.336 2.336 0 0 0 8 5.666V2.333A2.336 2.336 0 0 0 5.666 0zM4 6c-1.103 0-2-.897-2-2s.897-2 2-2 2 .897 2 2-.897 2-2 2zm2.333-4a.333.333 0 1 1 0-.667.333.333 0 0 1 0 .667z"/>
    </defs>
    <g fill="none" fill-rule="evenodd">
        <g transform="translate(47)">
            <mask id="b" fill="#fff">
                <use xlink:href="#a"/>
            </mask>
            <use fill="#111" xlink:href="#a"/>
            <g fill="#12C872" fill-rule="nonzero" mask="url(#b)">
                <path d="M0 0h8v8.16H0z"/>
            </g>
        </g>
        <path fill="#12C872" d="M3.392 7.096c-1.728 0-2.968-1.288-2.968-2.88V4.2c0-1.592 1.256-2.896 2.984-2.896s2.968 1.288 2.968 2.88V4.2c0 1.592-1.256 2.896-2.984 2.896zm.016-1.136c.992 0 1.68-.784 1.68-1.744V4.2c0-.96-.704-1.76-1.696-1.76s-1.68.784-1.68 1.744V4.2c0 .96.704 1.76 1.696 1.76zm3.936 1.76V3.272a.608.608 0 1 1 1.216 0v.056c.296-.4.704-.696 1.336-.696 1 0 1.952.784 1.952 2.216v.016c0 1.432-.936 2.216-1.952 2.216-.648 0-1.048-.296-1.336-.64v1.28a.608.608 0 1 1-1.216 0zm2.24-1.672c.568 0 1.048-.464 1.048-1.184v-.016c0-.712-.48-1.184-1.048-1.184-.568 0-1.04.472-1.04 1.184v.016c0 .712.472 1.184 1.04 1.184zm4.144-1.528h1.832c-.072-.544-.392-.912-.904-.912-.504 0-.832.36-.928.912zm2.536 2.056c-.376.32-.864.52-1.488.52-1.288 0-2.24-.904-2.24-2.216v-.016c0-1.224.872-2.232 2.12-2.232 1.432 0 2.064 1.176 2.064 2.064 0 .352-.248.584-.568.584h-2.408c.12.552.504.84 1.048.84.336 0 .616-.104.864-.288a.454.454 0 0 1 .296-.096c.272 0 .472.208.472.48 0 .16-.072.28-.16.36zm1.384-.136V3.272a.608.608 0 1 1 1.216 0v.048c.28-.36.64-.688 1.256-.688.92 0 1.456.608 1.456 1.592V6.44a.608.608 0 1 1-1.216 0V4.608c0-.576-.272-.872-.736-.872-.464 0-.76.296-.76.872V6.44a.608.608 0 1 1-1.216 0zm7.384 1.28V3.272a.608.608 0 1 1 1.216 0v.056c.296-.4.704-.696 1.336-.696 1 0 1.952.784 1.952 2.216v.016c0 1.432-.936 2.216-1.952 2.216-.648 0-1.048-.296-1.336-.64v1.28a.608.608 0 1 1-1.216 0zm2.24-1.672c.568 0 1.048-.464 1.048-1.184v-.016c0-.712-.48-1.184-1.048-1.184-.568 0-1.04.472-1.04 1.184v.016c0 .712.472 1.184 1.04 1.184zm5.264 1.048c-1.328 0-2.312-.984-2.312-2.216v-.016c0-1.232.992-2.232 2.328-2.232 1.328 0 2.312.984 2.312 2.216v.016c0 1.232-.992 2.232-2.328 2.232zm.016-1.048c.696 0 1.112-.536 1.112-1.168v-.016c0-.632-.456-1.184-1.128-1.184-.696 0-1.112.536-1.112 1.168v.016c0 .632.456 1.184 1.128 1.184zm4.696 1.032a2.988 2.988 0 0 1-1.616-.488.485.485 0 0 1-.232-.416c0-.272.208-.48.48-.48.088 0 .176.024.24.064.408.256.816.384 1.16.384.352 0 .512-.128.512-.32v-.016c0-.264-.416-.352-.888-.496-.6-.176-1.28-.456-1.28-1.288v-.016c0-.872.704-1.36 1.568-1.36.448 0 .912.12 1.328.328a.495.495 0 0 1 .288.456c0 .272-.216.48-.488.48a.444.444 0 0 1-.224-.056c-.344-.168-.672-.272-.928-.272-.296 0-.448.128-.448.296v.016c0 .24.408.352.872.512.6.2 1.296.488 1.296 1.272v.016c0 .952-.712 1.384-1.64 1.384zm3.96-.008c-.744 0-1.248-.296-1.248-1.288V3.752h-.04a.519.519 0 1 1 0-1.04h.04v-.536a.608.608 0 1 1 1.216 0v.536h.536a.519.519 0 1 1 0 1.04h-.536v1.832c0 .28.12.416.392.416.04 0 .12-.008.144-.008.272 0 .504.224.504.504a.495.495 0 0 1-.312.456c-.224.088-.432.12-.696.12z"/>
    </g>
</svg>
