<svg xmlns="http://www.w3.org/2000/svg" xmlns:xlink="http://www.w3.org/1999/xlink" width="48" height="48" viewBox="0 0 48 48">
    <defs>
        <path id="a" d="M24.721 22.625l.69 2.06-2.136.715-.69-2.06 2.136-.715zm1.48 8.704c-5.501 1.65-7.88.372-9.53-5.129-1.65-5.5-.372-7.88 5.129-9.53 5.5-1.65 7.88-.37 9.53 5.13 1.65 5.5.37 7.88-5.13 9.53zm2.878-7.008a.832.832 0 0 0-1.05-.525l-1.036.347-.69-2.061 1.037-.346a.832.832 0 0 0 .525-1.05.832.832 0 0 0-1.05-.526l-1.036.347-.357-1.075a.832.832 0 0 0-1.05-.525.832.832 0 0 0-.526 1.05l.358 1.075-2.136.718-.357-1.075a.832.832 0 0 0-1.05-.525.832.832 0 0 0-.526 1.05l.358 1.075-1.036.346a.832.832 0 0 0-.525 1.05c.114.333.435.55.768.565.153.021.275-.036 1.318-.382l.689 2.06-1.036.347a.832.832 0 0 0-.525 1.05c.114.332.436.55.768.564.154.022.275-.035 1.318-.382l.357 1.075a.848.848 0 0 0 1.05.525.832.832 0 0 0 .525-1.05l-.357-1.075 2.136-.718.357 1.075a.848.848 0 0 0 1.05.525.832.832 0 0 0 .525-1.05l-.357-1.075 1.036-.346a.845.845 0 0 0 .525-1.058z"/>
    </defs>
    <g fill="none" fill-rule="evenodd">
        <rect width="47" height="47" x=".5" y=".5" stroke="#12C872" rx="3"/>
        <use fill="#12C872" xlink:href="#a"/>
    </g>
</svg>
